<?xml version="1.0" encoding="UTF-8"?>
<!-- Generator: Adobe Illustrator 21.0.0, SVG Export Plug-In . SVG Version: 6.00 Build 0)  -->
<svg version="1.1" id="Layer_1" xmlns="http://www.w3.org/2000/svg" xmlns:xlink="http://www.w3.org/1999/xlink" x="0px" y="0px" viewBox="0 0 504 684" style="enable-background:new 0 0 504 684;" xml:space="preserve">
<style type="text/css">
	.st0{fill:#051D49;}
</style>
<g>
	<path class="st0" d="M153.6,98.6l83.6,152.9c7.7,16,9.5,19.6,16.6,37.3c7.7-16.6,10.1-21.3,18.4-37.3L354,98.6h131v87.1h-27.3   v244.2H485V517H349.8V323.2c0-15.4,0-19,1.2-32l-97.8,179.6L152.5,289.4c0.6,12.5,1.2,14.8,1.2,29V517H20.3v-87.1h27.9V185.7H20.3   V98.6H153.6"/>
	<path class="st0" d="M20.2,588.2l2.8,0.3l0.3,2.8c2.4,1.6,5,2.9,7.9,2.9c4.7,0,8.4-3,8.4-7.8c0-5.3-4-7.1-8-9.4   c-5-2.8-11.1-6-11.1-12.6c0-3,1.3-5.8,3.4-7.9c2.4-2.3,5.2-3.2,8.5-3.2c3.6,0,7.2,0.6,10.6,1.7l-0.3,6.4l-2.8-0.3l-0.3-2.8   c-2.2-1.3-4.7-2.2-7.2-2.2c-3.8,0-6.5,3.3-6.5,7c0,4.5,3.7,6.5,7.2,8.4c2.5,1.4,5.5,3.1,7.7,4.8c2.8,2.2,4.3,5.1,4.3,8.7   c0,7.5-6.5,12-13.5,12c-4,0-8-0.9-11.8-1.9L20.2,588.2"/>
	<path class="st0" d="M80.4,555.5l-0.3,6.6l-2.8-0.3l-0.3-2.9c-2.9-1.7-5.9-2.6-9.1-2.6c-4.8,0-8.7,2-11.3,6.2   c-2.3,3.8-3.4,8.8-3.4,13.3c0,9.5,5.3,18.4,15.7,18.4c4,0,8.6-1.3,11.8-3.7v3.3c-3.9,2.5-8.5,3.3-13,3.3c-6,0-11.2-1.5-15.2-6.3   c-3.9-4.5-5.2-10-5.2-15.8c0-5.3,1.5-11.4,5-15.5c4-4.6,9.3-6,15.2-6c4.4,0,7.8,0.8,11.9,1.8L80.4,555.5"/>
	<polyline class="st0" points="92.8,587.7 93.1,592.9 95.5,593.2 95.9,596 84.2,596 84.5,593.2 86.9,592.9 87.3,587.7 87.3,562.7    86.9,557.6 84.5,557.2 84.2,554.5 95.9,554.5 95.5,557.2 93.1,557.6 92.8,562.7 92.8,573.1 113,573.1 113,562.7 112.6,557.6    110.2,557.2 109.9,554.5 121.6,554.5 121.2,557.2 118.8,557.6 118.5,562.7 118.5,587.7 118.8,592.9 121.2,593.2 121.6,596    109.9,596 110.2,593.2 112.6,592.9 113,587.7 113,575.9 92.8,575.9 92.8,587.7  "/>
	<path class="st0" d="M157.2,575.3c0-8.5-3.1-19.1-13.3-19.1c-10.3,0-13.4,10.6-13.4,19.1c0,8.4,3.1,19,13.4,19   C154.1,594.3,157.2,583.7,157.2,575.3z M129.4,590.7c-3.7-4.4-4.8-9.8-4.8-15.4c0-5.5,1-10.9,4.5-15.2c3.7-4.6,8.8-6.7,14.7-6.7   c5.6,0,10.5,1.8,14.2,6.1c3.9,4.4,4.9,10,4.9,15.7c0,5.4-1,10.8-4.5,15.1c-3.7,4.6-8.8,6.7-14.7,6.7   C138.2,597,133.1,595.1,129.4,590.7"/>
	<path class="st0" d="M198.3,575.3c0-8.5-3.1-19.1-13.3-19.1c-10.3,0-13.4,10.6-13.4,19.1c0,8.4,3.1,19,13.4,19   C195.2,594.3,198.3,583.7,198.3,575.3z M170.5,590.7c-3.7-4.4-4.8-9.8-4.8-15.4c0-5.5,1-10.9,4.5-15.2c3.7-4.6,8.8-6.7,14.7-6.7   c5.6,0,10.5,1.8,14.3,6.1c3.8,4.4,4.9,10,4.9,15.7c0,5.4-1,10.8-4.5,15.1c-3.7,4.6-8.8,6.7-14.7,6.7   C179.3,597,174.2,595.1,170.5,590.7"/>
	<polyline class="st0" points="210.3,562.7 210,557.6 207.6,557.2 207.2,554.5 219,554.5 218.6,557.2 216.2,557.6 215.9,562.7    215.9,587.7 216.3,592.9 225.6,592.9 231.5,592.6 231.8,588.7 234.6,588.4 234.9,596 207.2,596 207.6,593.2 210,592.9 210.3,587.7    210.3,562.7  "/>
	<path class="st0" d="M280.4,575.3c0-8.5-3.1-19.1-13.3-19.1c-10.3,0-13.4,10.6-13.4,19.1c0,8.4,3.1,19,13.4,19   C277.3,594.3,280.4,583.7,280.4,575.3z M252.6,590.7c-3.7-4.4-4.8-9.8-4.8-15.4c0-5.5,1-10.9,4.5-15.2c3.7-4.6,8.9-6.7,14.7-6.7   c5.6,0,10.5,1.8,14.3,6.1c3.9,4.4,4.9,10,4.9,15.7c0,5.4-1,10.8-4.5,15.1c-3.7,4.6-8.9,6.7-14.7,6.7   C261.4,597,256.3,595.1,252.6,590.7"/>
	<polyline class="st0" points="297.9,587.7 298.3,592.9 300.7,593.2 301,596 289.3,596 289.6,593.2 292.1,592.9 292.4,587.7    292.4,562.7 292.1,557.6 289.6,557.2 289.3,554.5 315.3,554.5 314.9,560.4 312.2,560 311.8,557.6 306.2,557.2 297.9,557.2    297.9,573.5 312.2,573.5 311.8,576.6 306.2,576.2 297.9,576.2 297.9,587.7  "/>
	<polyline class="st0" points="337,587.7 337.4,592.9 339.8,593.2 340.2,596 329.7,596 330,593.2 332.5,592.9 332.8,587.7    332.8,562.7 332.5,557.6 330,557.2 329.7,554.5 339.6,554.5 351.3,585 363.4,554.5 371.9,554.5 371.6,557.2 369.2,557.6    368.8,562.7 368.8,587.7 369.2,592.9 371.6,593.2 371.9,596 360.6,596 360.9,593.2 363.3,592.9 363.7,587.7 363.7,562.5    363.5,562.5 351.5,592.9 348.8,592.9 337.2,562.5 337,562.5 337,587.7  "/>
	<polyline class="st0" points="378.4,562.7 378.1,557.6 375.7,557.2 375.3,554.5 387,554.5 386.7,557.2 384.3,557.6 383.9,562.7    383.9,587.7 384.3,592.9 386.7,593.2 387,596 375.3,596 375.7,593.2 378.1,592.9 378.4,587.7 378.4,562.7  "/>
	<polyline class="st0" points="393.6,562.7 393.3,557.6 390.8,557.2 390.5,554.5 397.9,554.5 419.7,588.3 419.7,562.7 419.3,557.6    416.9,557.2 416.6,554.5 426.7,554.5 426.3,557.2 423.9,557.6 423.6,562.7 423.6,596.5 418.9,596.5 397.5,563.3 397.5,587.7    397.8,592.9 400.3,593.2 400.6,596 390.5,596 390.8,593.2 393.3,592.9 393.6,587.7 393.6,562.7  "/>
	<polyline class="st0" points="430.1,596 430.4,593.2 432.8,592.9 433.2,587.7 433.2,562.7 432.8,557.6 430.4,557.2 430.1,554.5    456.4,554.5 456.1,560.7 453.3,560.4 453,557.6 447,557.2 438.7,557.2 438.7,572.8 453.3,572.8 453,576 446,575.6 438.7,575.6    438.7,587.7 439,592.9 448.5,592.9 454.2,592.6 454.5,589.5 457.3,589.1 457.6,596 430.1,596  "/>
	<path class="st0" d="M459.1,588.2l2.8,0.3l0.3,2.8c2.4,1.6,5,2.9,7.9,2.9c4.7,0,8.4-3,8.4-7.8c0-5.3-4-7.1-8-9.4   c-5-2.8-11.1-6-11.1-12.6c0-3,1.3-5.8,3.5-7.9c2.4-2.3,5.2-3.2,8.5-3.2c3.6,0,7.2,0.6,10.6,1.7l-0.3,6.4l-2.8-0.3l-0.3-2.8   c-2.2-1.3-4.7-2.2-7.2-2.2c-3.8,0-6.5,3.3-6.5,7c0,4.5,3.7,6.5,7.2,8.4c2.5,1.4,5.5,3.1,7.7,4.8c2.8,2.2,4.3,5.1,4.3,8.7   c0,7.5-6.5,12-13.5,12c-4,0-8-0.9-11.8-1.9L459.1,588.2"/>
	<path class="st0" d="M34,638.6c3.6-1.7,5.6-4.4,5.6-8.5c0-2.8-1.3-5-4.3-5c-2.8,0-4.6,2.5-4.6,5.1c0,2.9,1.6,5.6,3,8L34,638.6z    M29.8,642.4c-3.8,1.6-6.3,4.4-6.3,8.6c0,2.9,1.3,6,3.4,8.1c2.2,2.2,4.8,3.1,7.9,3.1c2.5,0,5-0.7,7-2.3L29.8,642.4z M43.5,662.1   c-3.6,2.4-7.2,3.9-11.7,3.9c-7.6,0-13.8-5.8-13.8-13.5c0-6.2,4.8-10.8,10.5-12.5c-1.7-2.6-3.2-5.5-3.2-8.7c0-2.5,1.1-4.8,2.9-6.5   c1.9-1.8,4.1-2.5,6.7-2.5c5.3,0,9.9,2.6,9.9,8.5c0,5.1-4.9,8.8-9.4,10.2l10.2,15c2.3-2.8,2.9-6.6,2.9-10.1l-2.9-0.3l-0.3-2.8h10.2   l-0.3,2.8l-2.8,0.3c-0.5,4.5-2.3,8.7-5,12.3l3.2,3.6l2.8,0.3l0.3,2.8h-7.7L43.5,662.1"/>
	<polyline class="st0" points="93.1,626.2 85.8,626.2 81.3,626.5 80.9,629.7 78.2,630 77.8,623.4 113.8,623.4 113.5,630    110.7,629.7 110.4,626.5 105.8,626.2 98.6,626.2 98.6,656.7 98.9,661.9 101.3,662.2 101.7,665 90,665 90.3,662.2 92.7,661.9    93.1,656.7 93.1,626.2  "/>
	<polyline class="st0" points="119.7,665 120.1,662.2 122.5,661.9 122.8,656.7 122.8,631.7 122.5,626.5 120.1,626.2 119.7,623.4    146.1,623.4 145.7,629.7 143,629.3 142.6,626.5 136.7,626.2 128.4,626.2 128.4,641.8 143,641.8 142.6,644.9 135.7,644.6    128.4,644.6 128.4,656.7 128.7,661.9 138.1,661.9 143.8,661.5 144.2,658.4 146.9,658.1 147.3,665 119.7,665  "/>
	<path class="st0" d="M185.8,624.4l-0.3,6.6l-2.8-0.4l-0.3-2.9c-2.9-1.7-5.9-2.6-9.1-2.6c-4.8,0-8.7,2-11.3,6.2   c-2.3,3.8-3.4,8.9-3.4,13.3c0,9.5,5.3,18.4,15.7,18.4c4,0,8.6-1.3,11.8-3.7v3.3c-3.8,2.5-8.5,3.3-13,3.3c-6,0-11.2-1.5-15.2-6.3   c-3.8-4.5-5.2-10-5.2-15.8c0-5.3,1.5-11.4,5-15.5c4-4.7,9.3-6,15.2-6c4.4,0,7.8,0.7,12,1.8L185.8,624.4"/>
	<polyline class="st0" points="202.4,656.7 202.7,661.9 205.1,662.2 205.5,665 193.7,665 194.1,662.2 196.5,661.9 196.8,656.7    196.8,631.7 196.5,626.5 194.1,626.2 193.7,623.4 205.5,623.4 205.1,626.2 202.7,626.5 202.4,631.7 202.4,642.1 222.5,642.1    222.5,631.7 222.2,626.5 219.8,626.2 219.4,623.4 231.2,623.4 230.8,626.2 228.4,626.5 228,631.7 228,656.7 228.4,661.9    230.8,662.2 231.2,665 219.4,665 219.8,662.2 222.2,661.9 222.5,656.7 222.5,644.8 202.4,644.8 202.4,656.7  "/>
	<polyline class="st0" points="242.2,631.7 241.8,626.5 239.4,626.2 239.1,623.4 246.5,623.4 268.3,657.3 268.3,631.7 267.9,626.5    265.5,626.2 265.2,623.4 275.3,623.4 274.9,626.2 272.5,626.5 272.2,631.7 272.2,665.5 267.5,665.5 246.1,632.2 246.1,656.7    246.4,661.9 248.9,662.2 249.2,665 239.1,665 239.4,662.2 241.8,661.9 242.2,656.7 242.2,631.7  "/>
	<path class="st0" d="M315.4,644.2c0-8.5-3.1-19.1-13.3-19.1c-10.3,0-13.4,10.6-13.4,19.1c0,8.5,3.1,19,13.4,19   C312.3,663.2,315.4,652.7,315.4,644.2z M287.6,659.6c-3.7-4.4-4.8-9.8-4.8-15.4c0-5.5,1-10.9,4.5-15.2c3.7-4.6,8.9-6.7,14.7-6.7   c5.6,0,10.5,1.8,14.3,6.1c3.9,4.4,4.9,10,4.9,15.7c0,5.4-1,10.8-4.5,15.1c-3.7,4.6-8.9,6.7-14.7,6.7   C296.4,666,291.3,664,287.6,659.6"/>
	<polyline class="st0" points="332,631.7 331.7,626.5 329.2,626.2 328.9,623.4 340.6,623.4 340.3,626.2 337.9,626.5 337.5,631.7    337.5,656.7 337.9,661.9 347.3,661.9 353.1,661.5 353.5,657.7 356.2,657.3 356.6,665 328.9,665 329.2,662.2 331.7,661.9 332,656.7    332,631.7  "/>
	<path class="st0" d="M394.3,644.2c0-8.5-3.1-19.1-13.3-19.1c-10.3,0-13.4,10.6-13.4,19.1c0,8.5,3.1,19,13.4,19   C391.2,663.2,394.3,652.7,394.3,644.2z M366.5,659.6c-3.7-4.4-4.8-9.8-4.8-15.4c0-5.5,1-10.9,4.5-15.2c3.7-4.6,8.9-6.7,14.7-6.7   c5.6,0,10.5,1.8,14.2,6.1c3.9,4.4,4.9,10,4.9,15.7c0,5.4-1,10.8-4.5,15.1c-3.7,4.6-8.8,6.7-14.7,6.7   C375.3,666,370.2,664,366.5,659.6"/>
	<path class="st0" d="M435.4,651.6l-3.2-0.3l-0.3-2.8H444l-0.3,2.8l-2.4,0.3l-0.3,5.9v6.4c-4.4,1.1-8.8,2.1-13.3,2.1   c-13.2,0-20.1-9.5-20.1-22.1c0-5.2,1.4-11.2,4.8-15.3c3.8-4.6,9.1-6.3,14.9-6.3c4.8,0,9.5,0.8,14.1,2.1l-0.3,7.3l-2.8-0.3l-0.3-3.2   c-3.2-1.8-6.4-3.1-10.1-3.1c-10.5,0-14.4,10.6-14.4,19.5c0,9.9,5.4,18.4,16.1,18.4c2,0,4-0.3,6-0.9V651.6"/>
	<polyline class="st0" points="454.1,631.2 451.1,626.5 449.3,626.2 449,623.4 460.9,623.4 460.6,626.2 457.8,626.5 467.4,642.7    477.3,626.5 474.5,626.2 474.2,623.4 483.4,623.4 483,626.2 481.3,626.5 477.4,632.3 468.8,646.5 468.8,656.7 469.1,661.9    471.5,662.2 471.9,665 460.1,665 460.5,662.2 462.9,661.9 463.2,656.7 463.2,646.5 454.1,631.2  "/>
	<path class="st0" d="M20.2,52.8l2.8,0.3l0.3,2.8c2.4,1.5,5,2.9,7.9,2.9c4.7,0,8.4-3,8.4-7.8c0-5.3-4-7.1-8-9.4   c-5-2.8-11.1-6-11.1-12.6c0-3,1.3-5.8,3.4-7.9c2.4-2.3,5.2-3.2,8.5-3.2c3.6,0,7.2,0.6,10.6,1.7l-0.3,6.4L40,25.8L39.6,23   c-2.2-1.3-4.7-2.2-7.2-2.2c-3.8,0-6.5,3.3-6.5,7c0,4.5,3.7,6.5,7.2,8.4c2.5,1.4,5.5,3.1,7.7,4.8c2.8,2.2,4.3,5.1,4.3,8.7   c0,7.5-6.5,12-13.5,12c-4,0-8-0.9-11.8-1.9L20.2,52.8"/>
	<path class="st0" d="M83.5,39.8c0-8.5-3.1-19.1-13.3-19.1c-10.3,0-13.4,10.6-13.4,19.1c0,8.4,3.1,19,13.4,19   C80.4,58.8,83.5,48.3,83.5,39.8z M55.7,55.2c-3.7-4.4-4.8-9.8-4.8-15.4c0-5.5,1-10.9,4.5-15.2c3.7-4.6,8.8-6.7,14.7-6.7   c5.6,0,10.5,1.8,14.2,6.1c3.8,4.4,4.9,10,4.9,15.7c0,5.4-1,10.8-4.5,15.1c-3.7,4.6-8.8,6.7-14.7,6.7C64.5,61.6,59.4,59.6,55.7,55.2   "/>
	<path class="st0" d="M98.4,27.3l-0.3-5.2l-2.4-0.3L95.3,19h11.7l-0.3,2.8l-2.4,0.3l-0.3,5.2v15.9c0,2.8,0,7.4,1,9.9   c1.3,3.7,5.1,5.7,8.9,5.7c3.2,0,6.6-1.4,8.3-4.1c1.7-2.9,1.6-7,1.6-10.3V27.3l-0.3-5.2l-2.4-0.3l-0.3-2.8H131l-0.3,2.8l-2.4,0.3   l-0.3,5.2v15.6c0,4.5,0.2,8.8-2.3,12.9c-2.9,4.5-7.1,5.8-12.2,5.8c-4.5,0-9-1-11.9-4.7c-2.8-3.4-3-8.2-3-12.5V27.3"/>
	<polyline class="st0" points="150.5,21.8 143.3,21.8 138.7,22.1 138.4,25.3 135.6,25.6 135.3,19 171.2,19 170.9,25.6 168.1,25.3    167.8,22.1 163.2,21.8 156,21.8 156,52.3 156.4,57.5 158.8,57.8 159.1,60.6 147.4,60.6 147.7,57.8 150.1,57.5 150.5,52.3    150.5,21.8  "/>
	<polyline class="st0" points="184.8,52.3 185.2,57.5 187.6,57.8 187.9,60.6 176.2,60.6 176.6,57.8 179,57.5 179.3,52.3 179.3,27.3    179,22.1 176.6,21.8 176.2,19 187.9,19 187.6,21.8 185.2,22.1 184.8,27.3 184.8,37.7 205,37.7 205,27.3 204.7,22.1 202.3,21.8    201.9,19 213.6,19 213.3,21.8 210.9,22.1 210.5,27.3 210.5,52.3 210.9,57.5 213.3,57.8 213.6,60.6 201.9,60.6 202.3,57.8    204.7,57.5 205,52.3 205,40.5 184.8,40.5 184.8,52.3  "/>
	<path class="st0" d="M258.8,57.5c5.1,0,9.5-1,12.8-5.2c2.8-3.5,3.9-8.6,3.9-13c0-5.1-1.4-10.1-5.2-13.6c-3.9-3.6-8.8-3.8-14-3.8   h-3.7v30.5l0.3,4.8L258.8,57.5z M244.3,57.8l2.4-0.3l0.3-5.2v-25l-0.3-5.2l-2.4-0.3L244,19h17.5c5.5,0,10.6,1,14.7,5.1   c3.8,3.8,5.2,9.5,5.2,14.8c0,5.6-1.4,11.4-5.2,15.7c-4.2,4.8-9.4,6-15.5,6H244L244.3,57.8"/>
	<path class="st0" d="M310.8,45.3l-7.6-19.4l-7.6,19.4H310.8z M291,57.5l2.8,0.3l0.3,2.8h-9.2l0.3-2.8l1.7-0.3l2.8-5.9l13-33.3h3.3   l13.7,34.6l2.2,4.5l1.7,0.3l0.3,2.8h-11.5l0.3-2.8l2.8-0.3l-3.8-9.4h-17.4L291,57.5"/>
	<polyline class="st0" points="337.8,52.3 338.2,57.5 340.6,57.8 340.9,60.6 329.2,60.6 329.6,57.8 332,57.5 332.3,52.3 332.3,27.3    332,22.1 329.6,21.8 329.2,19 340.9,19 340.6,21.8 338.2,22.1 337.8,27.3 337.8,39.5 352.8,22.1 350,21.8 349.7,19 359.3,19    359,21.8 357.2,22.1 352,27.9 343.1,38.2 360.4,57.5 362.5,57.8 362.9,60.6 351,60.6 351.4,57.8 353.4,57.5 337.8,39.5 337.8,52.3     "/>
	<path class="st0" d="M399.9,39.8c0-8.5-3.1-19.1-13.3-19.1c-10.3,0-13.4,10.6-13.4,19.1c0,8.4,3.1,19,13.4,19   C396.8,58.8,399.9,48.3,399.9,39.8z M372.1,55.2c-3.7-4.4-4.8-9.8-4.8-15.4c0-5.5,1-10.9,4.5-15.2c3.7-4.6,8.9-6.7,14.7-6.7   c5.6,0,10.5,1.8,14.2,6.1c3.8,4.4,4.9,10,4.9,15.7c0,5.4-1,10.8-4.5,15.1c-3.7,4.6-8.8,6.7-14.7,6.7   C380.9,61.6,375.7,59.6,372.1,55.2"/>
	<polyline class="st0" points="425.2,21.8 418,21.8 413.4,22.1 413.1,25.3 410.3,25.6 410,19 445.9,19 445.6,25.6 442.8,25.3    442.5,22.1 437.9,21.8 430.7,21.8 430.7,52.3 431.1,57.5 433.5,57.8 433.8,60.6 422.1,60.6 422.4,57.8 424.9,57.5 425.2,52.3    425.2,21.8  "/>
	<path class="st0" d="M469.5,45.3l-7.6-19.4l-7.6,19.4H469.5z M449.7,57.5l2.8,0.3l0.3,2.8h-9.2l0.3-2.8l1.7-0.3l2.8-5.9l13-33.3   h3.3l13.7,34.6l2.2,4.5l1.7,0.3l0.3,2.8h-11.5l0.3-2.8l2.8-0.3l-3.8-9.4h-17.4L449.7,57.5"/>
</g>
</svg>